<?xml version="1.0" standalone="no"?>
<!DOCTYPE svg PUBLIC "-//W3C//DTD SVG 20010904//EN"
 "http://www.w3.org/TR/2001/REC-SVG-20010904/DTD/svg10.dtd">
<svg version="1.0" xmlns="http://www.w3.org/2000/svg"
 width="835.000000pt" height="728.000000pt" viewBox="0 0 835.000000 728.000000"
 preserveAspectRatio="xMidYMid meet">

<g transform="translate(0.000000,728.000000) scale(0.100000,-0.100000)"
fill="#000000" stroke="none">
<path d="M5700 7261 c-70 -23 -124 -69 -355 -300 l-249 -250 -171 168 c-183
180 -214 201 -332 217 -63 8 -162 -17 -223 -56 -25 -16 -1004 -989 -2176
-2162 -2395 -2397 -2178 -2165 -2179 -2333 0 -158 -8 -147 457 -609 262 -258
417 -405 443 -417 56 -26 90 -24 162 10 153 73 295 54 402 -51 24 -24 55 -65
69 -93 23 -43 27 -62 27 -140 0 -80 -3 -98 -33 -162 -35 -77 -40 -126 -18
-176 7 -18 192 -213 410 -434 357 -362 404 -405 464 -435 60 -30 76 -33 152
-33 76 0 93 4 151 32 58 29 99 66 307 278 133 135 245 245 249 245 4 0 81 -73
172 -163 202 -199 224 -212 361 -212 83 0 102 3 150 27 46 23 388 360 2206
2180 2098 2099 2152 2154 2174 2213 18 49 21 75 18 145 -7 144 1 134 -451 584
-221 219 -415 407 -432 417 -48 30 -120 25 -201 -13 -60 -28 -80 -33 -149 -33
-67 0 -89 5 -136 27 -70 35 -132 97 -167 168 -23 46 -27 68 -27 135 0 70 4 89
33 149 38 81 43 153 13 201 -10 17 -198 211 -417 431 -453 456 -439 445 -589
450 -49 2 -101 0 -115 -5z m759 -1002 c18 -24 18 -29 4 -90 -20 -80 -22 -256
-4 -329 23 -94 77 -195 144 -267 79 -84 159 -136 261 -169 68 -23 99 -27 196
-27 77 0 136 6 178 17 l63 17 87 -80 c48 -44 203 -196 344 -338 l258 -258
-2100 -2100 -2100 -2100 -140 140 -140 140 1482 1482 c816 816 1486 1483 1489
1483 3 0 24 -16 45 -36 21 -20 53 -43 71 -50 116 -49 243 38 243 166 0 50 -21
93 -68 143 l-36 37 151 153 c192 193 208 222 208 362 0 157 14 138 -450 603
-435 434 -455 451 -537 438 -22 -4 -62 -18 -89 -32 -139 -70 -290 -44 -395 68
-68 73 -89 126 -89 228 0 75 4 93 33 154 41 87 43 147 6 202 -14 21 -71 85
-127 142 l-102 102 230 230 230 230 317 -317 c175 -175 326 -330 337 -344z
m-1717 304 c98 -98 178 -183 178 -190 0 -17 76 -93 93 -93 7 0 61 -49 120
-108 l108 -109 -16 -62 c-41 -161 -26 -330 43 -471 73 -150 232 -277 394 -315
84 -20 240 -19 333 2 l76 16 335 -334 c184 -184 334 -339 334 -345 0 -5 -788
-797 -1752 -1760 -963 -962 -1761 -1758 -1772 -1770 -12 -12 -35 -28 -52 -37
-34 -18 -84 -71 -84 -90 0 -7 -118 -130 -262 -274 l-263 -263 -341 341 -342
341 14 52 c8 28 17 96 20 151 12 198 -44 345 -180 480 -89 88 -169 134 -277
160 -83 19 -230 19 -326 -1 l-76 -15 -51 48 c-140 132 -626 619 -626 628 0 5
742 752 1648 1658 l1648 1648 67 -26 c37 -14 73 -25 80 -25 7 0 41 20 75 45
l62 45 0 83 c0 60 -4 89 -16 106 -17 23 -15 25 302 342 175 175 321 319 324
319 3 0 85 -80 182 -177z"/>
<path d="M4080 5729 c-30 -22 -58 -48 -62 -57 -4 -9 -7 -47 -7 -83 -1 -76 15
-104 110 -196 43 -41 69 -56 126 -74 l72 -23 66 45 65 44 0 88 0 87 -79 83
c-72 75 -86 85 -148 105 -38 12 -74 22 -79 22 -5 -1 -34 -19 -64 -41z"/>
<path d="M4578 5223 l-68 -46 0 -83 0 -83 79 -83 c72 -76 86 -85 155 -109 l75
-27 63 44 c59 42 63 48 70 92 16 114 15 115 -73 207 -81 84 -98 94 -224 131
-5 1 -40 -18 -77 -43z"/>
<path d="M5085 4727 l-60 -43 -7 -79 c-9 -94 -2 -108 94 -201 53 -52 75 -65
138 -86 l76 -25 59 43 60 43 7 78 c7 93 1 106 -94 200 -53 52 -75 67 -137 88
-41 14 -75 25 -75 25 -1 -1 -28 -20 -61 -43z"/>
<path d="M5585 4220 c-56 -37 -60 -43 -67 -87 -15 -114 -16 -114 76 -210 78
-82 89 -90 156 -112 l72 -23 47 33 c91 64 91 64 91 151 l0 78 -79 83 c-72 75
-86 85 -148 105 -38 12 -74 22 -79 22 -5 0 -36 -18 -69 -40z"/>
</g>
</svg>
